#!OML:ASF F:\VICON\USERDATA\INSTALL\rory3\rory3.ASF
:FULLY-SPECIFIED
:DEGREES
391
root 0.365622 20.9116 2.55647 18.9372 -1.24974 -3.71175
lowerback -8.71749 0.851805 5.11732
upperback -7.23456 0.840856 1.49775
thorax -2.59741 0.253162 -1.26142
lowerneck -13.0817 -1.79956 -4.12857
upperneck 28.0789 -1.66683 0.450592
head 11.3159 -1.14195 0.648382
rclavicle 1.19465e-014 -1.90833e-014
rhumerus -43.7295 -1.56801 -85.8624
rradius 35.7589
rwrist 5.06051
rhand -19.2696 -48.624
rfingers 7.12502
rthumb 7.04493 -78.4867
lclavicle 1.19465e-014 -1.90833e-014
lhumerus -52.5052 -12.3473 89.8061
lradius 35.0463
lwrist 10.9457
lhand -29.5622 -29.2691
lfingers 7.12502
lthumb -2.89468 0.690996
rfemur -35.9755 1.71505 21.5307
rtibia 41.9123
rfoot 7.04883 -7.52169
rtoes -14.3939
lfemur -37.9592 0.909705 -15.2235
ltibia 39.0755
lfoot 14.4846 -1.50615
ltoes -16.6331
392
root 0.361701 20.7583 2.5399 18.7917 -1.17685 -3.7435
lowerback -8.41562 0.903034 5.09015
upperback -7.08901 0.926275 1.51584
thorax -2.6051 0.299862 -1.22526
lowerneck -13.2783 -1.90279 -4.23398
upperneck 27.6874 -1.8043 0.546684
head 11.2118 -1.19829 0.681619
rclavicle 1.00014e-015 4.77083e-015
rhumerus -43.7398 -1.22738 -85.8343
rradius 36.6567
rwrist 4.78743
rhand -18.8312 -48.6509
rfingers 7.12502
rthumb 7.4681 -78.4991
lclavicle 1.00014e-015 4.77083e-015
lhumerus -52.3037 -11.9097 89.6253
lradius 34.7156
lwrist 10.8744
lhand -26.401 -23.2122
lfingers 7.12502
lthumb 0.158422 6.76753
rfemur -35.7083 1.89518 21.5
rtibia 41.3509
rfoot 6.30375 -7.73204
rtoes -14.7886
lfemur -37.9508 0.161487 -14.8008
ltibia 39.0162
lfoot 13.9984 -1.94611
ltoes -15.4331
393
root 0.358198 20.5885 2.51799 18.6145 -1.10632 -3.56427
lowerback -7.89364 0.907384 4.89876
upperback -7.02513 0.975297 1.46341
thorax -2.8225 0.327429 -1.17626
lowerneck -13.3243 -1.97173 -4.51147
upperneck 27.2728 -1.90342 0.810898
head 11.0727 -1.23471 0.811483
rclavicle -2.15247e-015 -7.95139e-016
rhumerus -43.8322 -0.685203 -85.9323
rradius 37.3111
rwrist 3.71866
rhand -20.1098 -46.8779
rfingers 7.12502
rthumb 6.23377 -76.7662
lclavicle -2.15247e-015 -7.95139e-016
lhumerus -52.1604 -11.5839 89.5456
lradius 34.2932
lwrist 10.8405
lhand -29.0235 -28.7303
lfingers 7.12502
lthumb -2.37445 1.23622
rfemur -35.4991 2.05081 21.2064
rtibia 40.8927
rfoot 5.85234 -8.11015
rtoes -14.7836
lfemur -37.924 -0.750325 -14.5963
ltibia 39.0735
lfoot 13.297 -1.99615
ltoes -15.4919
394
root 0.353931 20.3964 2.4811 18.5019 -0.937693 -3.51689
lowerback -7.21312 0.938009 4.85453
upperback -7.03376 1.06432 1.43931
thorax -3.20289 0.365715 -1.18113
lowerneck -13.2358 -2.08045 -4.71833
upperneck 26.7642 -2.05431 0.974622
head 10.8732 -1.29889 0.886166
rclavicle 1.11816e-016 -2.34566e-014
rhumerus -43.779 -0.315728 -85.8438
rradius 38.1033
rwrist 4.01826
rhand -18.5625 -47.3415
rfingers 7.12502
rthumb 7.72745 -77.1803
lclavicle 1.11816e-016 -2.34566e-014
lhumerus -51.9815 -11.4814 89.609
lradius 33.8399
lwrist 10.9331
lhand -29.6672 -29.6807
lfingers 7.12502
lthumb -2.99607 0.278005
rfemur -35.4602 2.29317 21.0323
rtibia 40.4975
rfoot 5.922 -8.4211
rtoes -15.5286
lfemur -38.1071 -1.63168 -14.2529
ltibia 39.2373
lfoot 12.8558 -1.60279
ltoes -15.7387
395
root 0.348459 20.1939 2.44037 18.399 -0.717142 -3.79517
lowerback -6.64359 1.02307 5.09965
upperback -6.84139 1.20083 1.52211
thorax -3.3081 0.426881 -1.23387
lowerneck -13.5539 -2.16385 -4.44519
upperneck 26.1509 -2.11991 0.611092
head 10.7019 -1.33698 0.697438
rclavicle -9.2497e-015 8.34896e-015
rhumerus -43.4202 0.166455 -85.8355
rradius 38.6955
rwrist 3.41
rhand -19.0154 -46.1486
rfingers 7.12502
rthumb 7.29026 -76.003
lclavicle -9.2497e-015 8.34896e-015
lhumerus -51.5471 -11.2969 89.5364
lradius 33.7622
lwrist 10.9663
lhand -29.6204 -29.0287
lfingers 7.12502
lthumb -2.95084 0.93067
rfemur -35.4355 2.6428 21.2256
rtibia 40.1377
rfoot 6.16668 -8.81693
rtoes -16.6727
lfemur -38.3442 -2.29883 -13.5698
ltibia 39.4225
lfoot 12.5688 -1.39916
ltoes -16.863
396
root 0.3436 19.9947 2.4203 18.2787 -0.45124 -3.90698
lowerback -6.49358 1.08343 5.22875
upperback -6.51228 1.27354 1.53089
thorax -3.03928 0.469488 -1.29463
lowerneck -13.9458 -2.24269 -3.84441
upperneck 25.4339 -2.18043 -0.0584057
head 10.4992 -1.37746 0.346461
rclavicle 4.83295e-015 2.0276e-014
rhumerus -43.1323 0.67039 -85.9097
rradius 39.5993
rwrist 2.61837
rhand -19.314 -45.4911
rfingers 7.12502
rthumb 7.00207 -75.3553
lclavicle 4.83295e-015 2.0276e-014
lhumerus -51.0389 -11.1887 89.422
lradius 33.6644
lwrist 10.9301
lhand -30.0231 -30.201
lfingers 7.12502
lthumb -3.33977 -0.24746
rfemur -35.3096 2.7526 21.2917
rtibia 39.8274
rfoot 6.1728 -9.37069
rtoes -16.2818
lfemur -38.4249 -2.91034 -13.1081
ltibia 39.5686
lfoot 12.2607 -1.46407
ltoes -18.0091
397
root 0.344843 19.7907 2.40822 18.191 -0.107507 -3.85837
lowerback -6.39696 1.08506 5.34893
upperback -6.39794 1.27237 1.45904
thorax -2.96996 0.466236 -1.43692
lowerneck -13.8242 -2.35102 -3.74569
upperneck 24.7596 -2.34477 -0.134254
head 10.2302 -1.44623 0.286133
rclavicle 1.09953e-014 1.03368e-014
rhumerus -43.2415 1.1859 -85.9765
rradius 40.7292
rwrist 2.42117
rhand -18.5558 -46.0362
rfingers 7.12502
rthumb 7.73387 -75.8747
lclavicle 1.09953e-014 1.03368e-014
lhumerus -50.8954 -11.1458 89.3988
lradius 33.4121
lwrist 10.9152
lhand -30.1808 -30.6269
lfingers 7.12502
lthumb -3.49208 -0.675771
rfemur -35.1875 2.50563 21.2272
rtibia 39.6322
rfoot 6.17628 -9.75849
rtoes -14.9334
lfemur -38.48 -3.47961 -12.891
ltibia 39.6642
lfoot 12.0315 -1.5384
ltoes -17.3149
398
root 0.348773 19.5687 2.38965 18.0575 -0.00857068 -3.71965
lowerback -5.89539 1.08374 5.32886
upperback -6.36353 1.30489 1.39165
thorax -3.20959 0.476846 -1.50259
lowerneck -14.0147 -2.37524 -4.0791
upperneck 24.4525 -2.40106 0.304549
head 10.1675 -1.44847 0.488997
rclavicle 2.28602e-015 -2.22639e-014
rhumerus -43.3795 1.85887 -86.0155
rradius 41.9464
rwrist 2.91856
rhand -17.146 -47.2863
rfingers 7.12502
rthumb 9.09444 -77.0702
lclavicle 2.28602e-015 -2.22639e-014
lhumerus -50.8494 -10.8352 89.2779
lradius 33.2923
lwrist 10.7095
lhand -30.1145 -30.5897
lfingers 7.12502
lthumb -3.42807 -0.637475
rfemur -35.1166 2.3196 21.035
rtibia 39.5673
rfoot 6.45539 -9.68712
rtoes -15.6031
lfemur -38.4819 -3.81658 -12.8895
ltibia 39.7976
lfoot 12.0136 -1.61105
ltoes -15.0898
399
root 0.342085 19.3215 2.37103 17.9417 -0.249003 -3.43697
lowerback -5.53808 1.1445 4.8789
upperback -6.14125 1.41364 1.31807
thorax -3.17198 0.551358 -1.32954
lowerneck -14.847 -2.36861 -4.14782
upperneck 24.3825 -2.37353 0.461996
head 10.3047 -1.42038 0.551084
rclavicle -3.71479e-015 -3.18055e-015
rhumerus -43.1726 2.70012 -86.1848
rradius 42.7431
rwrist 2.10118
rhand -18.1978 -45.9887
rfingers 7.12502
rthumb 8.07948 -75.8142
lclavicle -3.71479e-015 -3.18055e-015
lhumerus -50.4948 -10.5312 89.0777
lradius 33.2881
lwrist 10.4503
lhand -30.1677 -30.6566
lfingers 7.12502
lthumb -3.47941 -0.705289
rfemur -35.2761 2.55254 20.6249
rtibia 39.7714
rfoot 6.6949 -9.63987
rtoes -17.1698
lfemur -38.4594 -3.84469 -13.1304
ltibia 40.07
lfoot 12.0968 -1.96542
ltoes -13.7387
400
root 0.346181 19.0631 2.34078 17.7452 0.0770033 -3.60979
lowerback -5.33083 1.14959 5.24623
upperback -5.84696 1.41143 1.29799
thorax -2.97356 0.544969 -1.55671
lowerneck -15.1756 -2.40823 -4.01262
upperneck 23.8593 -2.42776 0.387213
head 10.1765 -1.43608 0.492846
rclavicle 8.49804e-015 3.97569e-015
rhumerus -42.9298 3.37418 -86.3094
rradius 44.2309
rwrist 0.834107
rhand -17.0017 -48.5677
rfingers 7.12502
rthumb 9.23374 -78.3455
lclavicle 8.49804e-015 3.97569e-015
lhumerus -50.1198 -10.5254 88.9461
lradius 33.4062
lwrist 10.3784
lhand -30.0684 -29.7953
lfingers 7.12502
lthumb -3.3835 0.157552
rfemur -35.2818 2.22872 20.8759
rtibia 40.113
rfoot 6.4782 -9.6923
rtoes -17.5307
lfemur -38.5269 -3.88893 -12.9133
ltibia 40.6482
lfoot 12.0727 -2.75932
ltoes -14.9209
401
root 0.329142 18.7831 2.30423 17.7519 -0.0436101 -3.53636
lowerback -5.117 1.24997 4.91985
upperback -5.74742 1.56413 1.24229
thorax -2.9824 0.633576 -1.43144
lowerneck -15.0519 -2.42135 -4.03044
upperneck 23.112 -2.47799 0.514015
head 9.88748 -1.44012 0.53755
rclavicle 2.6339e-015 -1.55052e-014
rhumerus -43.039 4.10947 -86.4564
rradius 45.6778
rwrist 0.440696
rhand -15.9868 -50.0163
rfingers 7.12502
rthumb 10.2129 -79.7484
lclavicle 2.6339e-015 -1.55052e-014
lhumerus -50.0469 -10.6342 88.8954
lradius 33.6792
lwrist 10.3386
lhand -29.7875 -29.0565
lfingers 7.12502
lthumb -3.11227 0.900502
rfemur -35.7734 2.63066 20.7289
rtibia 40.8214
rfoot 7.00079 -9.94035
rtoes -15.1881
lfemur -38.8973 -3.58746 -13.0005
ltibia 41.5068
lfoot 11.8285 -2.96415
ltoes -16.3785
402
root 0.342548 18.501 2.2566 17.7248 0.387617 -3.94886
lowerback -4.4958 1.2585 5.72175
upperback -5.69182 1.59868 1.24921
thorax -3.25683 0.616009 -1.88284
lowerneck -15.7211 -2.41964 -4.20456
upperneck 22.9282 -2.48649 0.870417
head 9.95592 -1.41393 0.683815
rclavicle 2.41026e-015 1.90833e-014
rhumerus -42.9964 5.28586 -86.7461
rradius 46.213
rwrist 1.09117
rhand -17.0989 -47.2361
rfingers 7.12502
rthumb 9.13995 -77.0181
lclavicle 2.41026e-015 1.90833e-014
lhumerus -49.8918 -10.7666 88.8652
lradius 33.9266
lwrist 10.2243
lhand -29.5933 -28.9056
lfingers 7.12502
lthumb -2.92465 1.0541
rfemur -36.2647 2.08727 21.2831
rtibia 41.8599
rfoot 6.74765 -9.23134
rtoes -17.6298
lfemur -39.4573 -3.4789 -12.578
ltibia 42.8405
lfoot 10.0414 -2.76726
ltoes -17.8121
403
root 0.329789 18.183 2.21881 17.8834 0.130337 -3.6468
lowerback -4.22771 1.3371 5.25537
upperback -5.50704 1.72113 1.12572
thorax -3.20884 0.696139 -1.75257
lowerneck -16.7893 -2.44605 -4.49289
upperneck 22.7809 -2.49995 1.30282
head 10.1158 -1.3886 0.872029
rclavicle -1.1455e-014 -5.56597e-015
rhumerus -42.5082 6.78683 -87.0958
rradius 46.7984
rwrist 0.748739
rhand -18.0559 -46.1658
rfingers 7.12502
rthumb 8.21639 -75.9861
lclavicle -1.1455e-014 -5.56597e-015
lhumerus -49.5475 -10.9557 88.8153
lradius 34.3465
lwrist 10.2609
lhand -29.5447 -29.3627
lfingers 7.12502
lthumb -2.87779 0.597615
rfemur -37.3614 2.40038 20.8913
rtibia 43.5092
rfoot 5.16684 -8.61905
rtoes -23.7856
lfemur -40.1999 -2.93865 -13.0111
ltibia 44.6751
lfoot 5.41205 -2.74923
ltoes -23.1866
